<svg width="28" height="28" viewBox="0 0 28 28" fill="none" xmlns="http://www.w3.org/2000/svg">
<path d="M25.6673 12.8334L24.1553 11.3214C23.895 11.059 23.5853 10.8507 23.2441 10.7085C22.9029 10.5664 22.537 10.4932 22.1673 10.4932C21.7977 10.4932 21.4317 10.5664 21.0905 10.7085C20.7493 10.8507 20.4396 11.059 20.1793 11.3214L12.834 18.6667" stroke="white" stroke-width="2" stroke-linecap="round" stroke-linejoin="round"/>
<path d="M4.66732 9.3335C4.04848 9.3335 3.45499 9.57933 3.0174 10.0169C2.57982 10.4545 2.33398 11.048 2.33398 11.6668V23.3335C2.33398 23.9523 2.57982 24.5458 3.0174 24.9834C3.45499 25.421 4.04848 25.6668 4.66732 25.6668H16.334C16.9528 25.6668 17.5463 25.421 17.9839 24.9834C18.4215 24.5458 18.6673 23.9523 18.6673 23.3335" stroke="white" stroke-width="2" stroke-linecap="round" stroke-linejoin="round"/>
<path d="M15.1667 9.33333C15.811 9.33333 16.3333 8.811 16.3333 8.16667C16.3333 7.52233 15.811 7 15.1667 7C14.5223 7 14 7.52233 14 8.16667C14 8.811 14.5223 9.33333 15.1667 9.33333Z" fill="white" stroke="white" stroke-width="2" stroke-linecap="round" stroke-linejoin="round"/>
<path d="M23.334 2.3335H11.6673C10.3787 2.3335 9.33398 3.37817 9.33398 4.66683V16.3335C9.33398 17.6222 10.3787 18.6668 11.6673 18.6668H23.334C24.6227 18.6668 25.6673 17.6222 25.6673 16.3335V4.66683C25.6673 3.37817 24.6227 2.3335 23.334 2.3335Z" stroke="white" stroke-width="2" stroke-linecap="round" stroke-linejoin="round"/>
</svg>
