<?xml version="1.0" encoding="UTF-8"?>
<svg id="Layer_2" data-name="Layer 2" xmlns="http://www.w3.org/2000/svg" viewBox="0 0 4406.18 4177.58">
  <defs>
    <style>
      .cls-1, .cls-2, .cls-3, .cls-4, .cls-5, .cls-6, .cls-7, .cls-8, .cls-9, .cls-10, .cls-11 {
        stroke-width: 0px;
      }

      .cls-1, .cls-3, .cls-6, .cls-7, .cls-8 {
        fill-rule: evenodd;
      }

      .cls-2 {
        isolation: isolate;
        opacity: .54;
      }

      .cls-2, .cls-12, .cls-9 {
        fill: #211b21;
      }

      .cls-3 {
        fill: #a88840;
      }

      .cls-4, .cls-6 {
        fill: #eed9a2;
      }

      .cls-5 {
        fill: #917330;
      }

      .cls-12 {
        font-family: Montserrat-Black, Montserrat;
        font-size: 340px;
        font-weight: 800;
      }

      .cls-7 {
        fill: #fff;
      }

      .cls-8 {
        fill: #705f3a;
      }

      .cls-10 {
        fill: #829ba3;
      }

      .cls-11 {
        fill: #3c663d;
      }
    </style>
  </defs>
  <g id="Layer_1-2" data-name="Layer 1">
    <g>
      <g>
        <ellipse class="cls-5" cx="2182" cy="2233.27" rx="1859.65" ry="1847.48"/>
        <g>
          <ellipse class="cls-10" cx="2182" cy="2233.27" rx="1681.78" ry="1670.77"/>
          <path class="cls-11" d="M554.18,2654.53c187.95,718.79,845.48,1249.51,1627.82,1249.51s1439.88-530.71,1627.82-1249.51H554.18Z"/>
          <g>
            <path class="cls-2" d="M1068.64,2821.43h-244.45c-9.17,0-16.67-7.45-16.67-16.56h0c0-9.11,7.5-16.56,16.67-16.56h244.45c9.17,0,16.67,7.45,16.67,16.56h0c0,9.11-7.5,16.56-16.67,16.56Z"/>
            <path class="cls-2" d="M1169.53,2918.37h-147.17c-9.17,0-16.67-7.45-16.67-16.56h0c0-9.11,7.5-16.56,16.67-16.56h147.17c9.17,0,16.67,7.45,16.67,16.56h0c0,9.11-7.5,16.56-16.67,16.56Z"/>
            <path class="cls-2" d="M3296.19,2816.9h244.44c9.17,0,16.67-7.45,16.67-16.56h0c0-9.11-7.5-16.56-16.67-16.56h-244.44c-9.17,0-16.67,7.45-16.67,16.56h0c0,9.11,7.5,16.56,16.67,16.56Z"/>
            <path class="cls-2" d="M3195.29,2913.85h147.17c9.17,0,16.67-7.45,16.67-16.56h0c0-9.11-7.5-16.56-16.67-16.56h-147.17c-9.17,0-16.67,7.45-16.67,16.56h0c0,9.11,7.5,16.56,16.67,16.56Z"/>
            <path class="cls-2" d="M1722.48,3552.57h147.17c9.17,0,16.67-7.45,16.67-16.56h0c0-9.11-7.5-16.56-16.67-16.56h-147.17c-9.17,0-16.67,7.45-16.67,16.56h0c0,9.11,7.5,16.56,16.67,16.56Z"/>
            <path class="cls-2" d="M2480.55,3450.88h147.17c9.17,0,16.67-7.45,16.67-16.56h0c0-9.11-7.5-16.56-16.67-16.56h-147.17c-9.17,0-16.67,7.45-16.67,16.56h0c0,9.11,7.5,16.56,16.67,16.56Z"/>
            <path class="cls-2" d="M2571.75,3382.93h147.17c9.17,0,16.67-7.45,16.67-16.56h0c0-9.11-7.5-16.56-16.67-16.56h-147.17c-9.17,0-16.67,7.45-16.67,16.56h0c0,9.11,7.5,16.56,16.67,16.56Z"/>
            <path class="cls-2" d="M1859.27,3625.05h147.17c9.17,0,16.67-7.45,16.67-16.56h0c0-9.11-7.5-16.56-16.67-16.56h-147.17c-9.17,0-16.67,7.45-16.67,16.56h0c0,9.11,7.5,16.56,16.67,16.56Z"/>
          </g>
          <g>
            <polygon class="cls-9" points="661.05 2655.1 1182.68 2136.9 1512.12 2327.82 2171.01 1400.5 2912.26 2273.27 3104.43 2109.62 3351.52 2409.64 3626.05 2327.82 3809.82 2668.17 661.05 2655.1"/>
            <polygon class="cls-4" points="1512.12 2327.82 1182.68 2136.9 1237.58 2409.64 1347.4 2368.73 1388.58 2464.18 1608.21 2546.01 1512.12 2327.82"/>
            <polygon class="cls-4" points="3104.43 2109.62 3351.52 2409.64 3159.34 2450.55 3186.8 2314.17 3104.43 2109.62"/>
            <polygon class="cls-4" points="3626.05 2327.82 3809.82 2668.17 3584.88 2491.46 3626.05 2327.82"/>
            <polygon class="cls-4" points="2912.26 2273.27 2171.01 1400.5 2212.19 1932.34 2349.45 1918.71 2349.45 2041.44 2541.63 2000.53 2912.26 2273.27"/>
          </g>
        </g>
      </g>
      <path class="cls-1" d="M1430.3,3105.02c-315.43,45.92-581.22,114.06-175.24,173.17,405.97,59.11,915.02,181.47,1121.54,95.28l821.89-342.99c69.03-28.8,56.52-64.08-13.91-78.41-105.58-21.47-227.34-43.45-247.2-44.53,0,0-1436.99,142.15-1507.08,197.49h0Z"/>
      <g>
        <path class="cls-1" d="M2433.27,2848.66c-58.62-3.51-86.99-5.19-144.57-8.64-71.78-4.29-136.35,100.64-144.24,234.38-7.88,133.74,43.92,245.64,115.71,249.92,58.62,3.51,86.99,5.21,144.58,8.65,71.78,4.29,136.35-100.65,144.24-234.39,7.88-133.74-43.92-245.63-115.71-249.92h0Z"/>
        <path class="cls-1" d="M3144.06,2738.8c-32.15-1.93-47.7-2.85-79.27-4.74-39.36-2.35-74.76,71.2-79.09,164.29-4.32,93.09,24.08,170.47,63.44,172.82,32.15,1.93,47.7,2.86,79.27,4.74,39.36,2.35,74.76-71.21,79.08-164.29,4.32-93.09-24.09-170.47-63.44-172.82h0Z"/>
        <path class="cls-1" d="M1555.2,2902.45c-32.15-6.99-47.7-10.37-79.27-17.25-39.36-8.57-74.77,59.4-79.08,151.81-4.32,92.4,24.09,174.27,63.43,182.83,32.15,6.99,47.7,10.39,79.27,17.25,39.36,8.57,74.76-59.4,79.08-151.81,4.32-92.4-24.09-174.26-63.44-182.83h0Z"/>
        <path class="cls-7" d="M1125.56,3005.22c-3.9-44.1-5.41-98.62,5.53-138.51,7.9-28.8,23.62-58.73,43.53-82.3,2.36-25.62,10.07-55.38,18.15-77.56,10.66-29.3,26.64-58.02,52.04-77.16,13.74-10.34,30.68-17.11,46.61-23.43,20.34-8.07,40.99-15.33,61.68-22.44,55.08-18.92,110.63-36.46,166.26-53.75,72.28-22.45,144.76-44.29,217.36-65.69,195.24-159.04,332.33-217.91,590.15-220.68,199.13-2.14,474.25,13.78,646.18,121.02,50.48,31.49,104.1,72.36,143.56,116.81,11.36,12.81,26.75,24.47,40.64,34.48,16.28,11.71,33.22,22.56,50.52,32.78,9.71,5.76,19.63,11.71,29.84,16.54,38.59,18.29,47.4,58.07,53.22,95.94,4.47,29.07,7.2,58.37,9.67,87.66,3.2,37.8,1.06,76.27,5.5,114.51,9.5,82.01-31.03,110.82-96.94,112.28l-14.58-233.63v-53.32l-1893.46,138.04c-67.94-15.33-75.85,279.16-87.75,290.98-94.73-5.61-112.59-77.83-87.7-112.6h0Z"/>
        <path class="cls-1" d="M1754.8,2498.18c188.66-154.69,316.85-214.22,572.47-216.96,186.52-1.99,460.27,12.1,625.69,115.28,45.91,28.65,99.08,69.04,135.3,109.85,13.12,14.78,30.82,28.53,46.82,40.04,17.19,12.37,35.15,23.88,53.35,34.63,10.46,6.19,21.94,12.99,32.91,18.18,24.19,11.47,28.62,44.89,32.14,67.74,4.34,28.16,6.99,56.86,9.38,85.14,2.2,25.92,4.02,51.83,5.79,77.76.97,14.2,1.52,29.27,3.16,43.41,2.5,21.59-2.61,47.18-15.01,64.55l-2.35,3.3-88.81,72.43v-145.38c0-20.38-1.26-42.29-5.58-62.5-1.09-5.13-4.6-18.8-8.59-25.46-1.52.73-3.06,1.63-3.93,2.19-16.22,10.21-29.9,68.59-33.61,86.95-7.73,38.24-12.95,80.43-15,119.84l-1.09,20.93-586.77,199.42,6.39-54.56c7.42-63.34,11.94-184.88-12.37-245.71-7.08-17.67-19.67-36.67-38.73-43.04-42.75-14.3-83.43,40.36-100.08,69.93-12.48,22.16-21.34,46.72-27.9,71.51-12.97,49.02-17.57,100.89-20,152-.93,19.41-1.38,38.96-2.68,58.3-1.09,16.08-2.45,35.38-13.91,47.24-26.07,26.91-122.88,24.7-158.12,23.95-58.57-1.24-117.77-6.23-176.29-12.62-88.41-9.66-176.84-22.98-264.79-38.05-79.02-13.54-482.62-81.78-544-146.4-24.34-25.64-13.51-54.91,6.09-74.99-4.65-44.04-7.16-103.92,2.87-140.51,7.27-26.51,23.56-56.26,44.14-76.9v-.45c0-23.29,8.9-58.38,16.62-79.62,8.09-22.23,20.25-45.64,39.34-60.01,10.07-7.57,25.96-13.78,37.8-18.48,19.73-7.82,39.9-14.92,60.02-21.83,54.64-18.77,109.93-36.23,165.19-53.39,74.5-23.14,149.27-45.64,224.16-67.69h0Z"/>
        <path class="cls-3" d="M1771.97,2528.06c-106.6,31.34-451.24,134.06-483.37,158.25-32.12,24.19-43.81,100.39-43.81,114.89v14.51s-32.53,24.84-45.27,71.29c-12.73,46.45,0,145.07,0,145.07,0,0-32.86,21.97-17.52,38.13,15.33,16.15,108.07,64.49,524.27,135.81,416.2,71.31,556.4,50.67,571,35.59,14.59-15.08-7.3-203.54,59.87-322.85,67.18-119.3,163.57-107.73,198.61-20.03,35.05,87.68,14.61,262.01,14.61,262.01l515.51-175.18s-10.81-88.39,4.58-162.02c7.17-34.33,26.88-73.97,43.61-84.5,31.96-20.14,78.02-.06,90.67,30.45,24.1,58.13,17.97,97.83,18.36,154.63l6.35-6.41s12.4-17.4,9.48-42.59c-2.92-25.2-12.76-237.97-30.29-246.27-17.52-8.3-105.14-57.07-144.57-101.5-26.95-30.36-102.3-98.16-201.85-143.17-125.53-56.77-402.38-71.37-532.57-69.96-246.37,2.64-367.65,57.32-557.65,213.87h0Z"/>
        <path class="cls-6" d="M1346.15,2768.01c-3.61,3.88-7.77,26.86-7.97,54.91-.1,13.03,9.03,22.33,20.8,25.48,108.04,28.8,308.95,54.42,434.7,65.47,22.34,1.96,44.05,6.33,54.56-15.95,10.88-23.07,11.35-40.92-1.72-53.63-9.38-9.11-165.98-27.92-295.41-45.86-114.33-15.86-203.78-31.68-204.95-30.43h0ZM1334.69,2855.88c-.31-2.44,96.55,39.18,234.68,52.34,56.06,5.35,167.51,24.88,240.48,19.92,24.9-1.69,24.79-3.45,6.99,18.25-43.01,52.43-88.97,55.13-190.31,44.79-109.34-11.16-182.22-27.69-243.9-50.05-28.11-10.18-43.46-49.98-47.94-85.25h0Z"/>
        <path class="cls-8" d="M1195.36,2911.13c-5.01,49.89,4.15,120.94,4.15,120.94,0,0-32.86,21.97-17.52,38.13,15.33,16.15,108.07,64.49,524.27,135.81,416.2,71.31,556.4,50.67,571,35.59,14.59-15.08-7.3-203.54,59.87-322.85,67.18-119.3,163.57-107.73,198.61-20.03,35.05,87.68,14.61,262.01,14.61,262.01l515.51-175.18s-5.53-200.03,48.19-231.28c52.81-30.71,77.62,10.16,90.66,57.87,15.21,55.63,6.93,125.57,8.28,124.04l16.43-18.47s12.4-17.4,9.48-42.59c-2.32-20.06-9.04-159.09-20.53-219.07-2.33,10.52-5.29,21.44-8.99,30.86-11.68,29.76-178.18,41.57-178.18,41.57l-490.67,112.84s-33.59-54.23-97.85-47.92c-64.25,6.32-109.52,102.26-147.5,173.99-29.91,56.5-111.46,89.19-163.31,96.59,53.57,38.66,99.71,151.29,72.75,158.14-27.75,7.04-189.85-7.01-202.98-22.3-13.15-15.29-30.67-119.35-39.43-122.77-8.76-3.42-137.28-18.36-137.28-18.36,30.13-6.63,63.59-12.19,97.25-15.9-65.74,1.06-125.15,7.36-133.74,11.82-17.52,9.11-90.55-5.41-90.55-5.41,0,0-369.46-52.55-388.45-66.75-18.26-13.65-89.25-61.34-114.1-71.26v-.02Z"/>
        <path class="cls-1" d="M1197.37,2896.52c-9.02,49.15-3.7,129.03-3.7,129.03,1.91,8.11,19.61,16.23,31.34,18.86,12.31,2.77,24.55,6.15,28.19-2.95,6.44-16.14,13.33-45.9,15.34-66.3,2.83-28.74.77-36.17-71.17-78.64h0Z"/>
        <path class="cls-1" d="M1288.59,2686.31c-32.12,24.19-43.81,100.39-43.81,114.89v14.51s-.64.5-1.8,1.48c4.73,4.93,37.98,24.25,56.11,33.27,4.58,2.28,10.22-1.67,10.61-5.22,2.72-25.01.46-71.97.46-79.21,0-5.41-12.39-86.63-21.56-79.73h0Z"/>
        <path class="cls-1" d="M2089.44,2343.28c-109.72,30.78-200.46,88.4-317.02,184.4l780.48,69.18s91.18-219.1,84.7-228.51c-6.49-9.42-381.39-20.17-548.17-25.07h0Z"/>
        <path class="cls-1" d="M1845.37,2463.88c-34.33-21.64-83.97-16.63-100.78,41.13-16.8,57.75,54.03,11.2,100.78-41.13Z"/>
        <path class="cls-1" d="M1990.68,2818.59c-64.25,42.58-143.11,130.73-74.47,126.12,68.64-4.59,265.78-11.67,302.29-48.66,36.52-36.99,87.62-116.63,54.03-122.98-33.58-6.37-211.74,23.61-281.85,45.53h0Z"/>
        <path class="cls-1" d="M1337.91,2754.77c-3.76,3.88-8.09,26.86-8.32,54.91-.1,13.03,9.42,22.34,21.68,25.48,112.54,28.8,321.83,54.42,452.83,65.47,23.27,1.96,45.89,6.33,56.83-15.95,11.32-23.07,11.83-40.92-1.79-53.63-9.77-9.11-172.89-27.92-307.72-45.86-119.1-15.86-212.28-31.68-213.51-30.43h0ZM1331.74,2845.95c-.32-2.44,94.79,35.87,238.68,49.04,58.41,5.34,174.5,24.88,250.51,19.91,25.93-1.69,25.83-3.45,7.28,18.25-44.8,52.43-92.67,55.12-198.23,44.79-113.92-11.16-186.93-29.9-251.18-52.25-29.27-10.18-42.38-44.47-47.05-79.74h0Z"/>
        <path class="cls-1" d="M1795.73,3058.64c103.69-22.81,246.8-33.11,302.29,2.12,55.49,35.23,105.15,154.27,77.4,161.32-27.74,7.04-189.85-7.01-202.99-22.3-13.15-15.3-30.67-119.35-39.43-122.77-8.76-3.42-137.28-18.36-137.28-18.36h0Z"/>
        <path class="cls-1" d="M2068.81,3102.54c-43.86-1.95-61.62-4.94-99.52-6.15-42.85-1.38-102.3-.47-84.47,6.75,11.05,4.48,52.69,10.93,79.2,13.72,54.05,5.7,102.84,3.08,104.8-14.32Z"/>
        <path class="cls-1" d="M2096.56,3154.97c-93.46-4.13-217.59-13-184.01.61,33.58,13.61,181.09,25.33,184.01-.61Z"/>
        <path class="cls-1" d="M1281.68,3064.19c35.05-41.43,37.96-67.37,87.62-61.5,49.65,5.87,370.93,61.35,370.93,61.35,0,0,39.43,11.05,74.48,56.68l35.05,45.63s-205.91,2.19-568.07-102.15h0Z"/>
        <path class="cls-1" d="M2604.04,3037.33l381.15-129.55-48.19,71.11-335.89,114.84,2.92-56.4h0Z"/>
        <path class="cls-1" d="M3219.76,2658.82c-123.42-38.91-559.64,41.02-852.06,103.65l-13.38,1.68c135.93-56.76,688.94-140.57,818.88-154.81,16.53,9.75,29.69,16.77,35.41,19.47,2.61,1.24,5.05,7.03,7.32,16.04l3.84,13.96h0Z"/>
        <path class="cls-1" d="M2678.97,2425.47c-26.86,69.9-56.07,183.55-48.65,183.99,8.76.52,384.07-56.83,389.91-65.18,12.53-17.94-72.89-79.31-120.18-106.06-79.96-45.25-151.36-56.29-186.64-62.17-18.5-3.09-23.89,21.97-34.44,49.42h0Z"/>
        <path class="cls-1" d="M2707.72,2518.33c-18.99,1.77-39.43,20.85-39.43,73.08,0,9.23.14,16.89.36,23.22,2.4,67.49,62.16,57.94,57.87-5.22,0,0,93.64-3.02,106.06-14.61,6.27-5.85,12.1-13.47-8.94-36-20.61-22.06-66.05-46.1-115.92-40.46h0Z"/>
        <polygon class="cls-1" points="2603.72 3014.33 3055.29 2877.15 2959.74 2939.25 2600.72 3090.36 2603.72 3014.33"/>
        <path class="cls-1" d="M1369.46,2653.41l-9.5,7.98c-25.4,29.52-86.02,82.25-19.17,91.77,95.77,13.64,269.81,38.98,402.63,56.65,74.94,9.98,123.82,21.96,169.98,17.07,39.81-4.2,158.11-38.56,283.67-78.25,144.66-45.72,298.39-98.22,352.6-119.78,42.36-16.83,10.65-28.61-35.86-36.77l31.52-7.25c.22.13,70.89,19.77,34.88,48.15-12.4,9.83-201.99,75.94-377.31,131.35-126.4,39.95-245.82,74.56-286.79,78.9-52.89,5.59-93.47-1.96-180.02-14.35-126.49-18.12-306.4-46.56-396.67-59.42-81.4-11.61-36.94-66.08-5.97-103.12,10.64-3.99,22.72-8.33,36-12.94h0Z"/>
        <path class="cls-7" d="M2440.63,2904.47c-23.97-1.43-47.23,17.47-65.47,49.18-19.13,33.29-32.37,80.21-35.14,132.86-.34,6.51-.5,13.21-.5,20.11,0,47.18,8.84,89.61,23.66,120.8,14.01,29.49,33.15,48.51,54.71,50.91.45.05,1.19.11,2.18.17,23.98,1.43,47.25-17.47,65.47-49.18,19.14-33.29,32.37-80.21,35.14-132.86.34-6.51.52-13.22.52-20.11,0-47.19-8.84-89.62-23.66-120.8-14.02-29.5-33.16-48.51-54.71-50.91-.45-.05-1.18-.1-2.19-.17h0ZM2360.67,2944.87c21.17-36.81,49.5-58.67,79.96-56.86.75.05,1.75.13,3.04.28,28.08,3.13,52.05,25.89,68.74,61.01,15.88,33.41,25.35,78.4,25.35,128.04,0,6.62-.19,13.6-.58,20.94-2.91,55.18-16.89,104.57-37.14,139.81-21.17,36.81-49.5,58.67-79.96,56.86-.75-.05-1.75-.14-3.03-.28-28.08-3.13-52.05-25.9-68.74-61.01-15.88-33.41-25.35-78.4-25.35-128.04,0-6.63.19-13.62.58-20.95,2.9-55.18,16.89-104.56,37.14-139.8Z"/>
        <path class="cls-7" d="M2437.48,3041.11c-6.16-.37-12.43,4.36-17.58,12.31-5.98,9.23-10.12,22.37-11,37.24-.1,1.72-.14,3.64-.14,5.73,0,13.17,2.69,24.91,7.21,33.47,3.78,7.17,8.66,11.78,13.9,12.4l.67.04c6.15.37,12.43-4.36,17.57-12.31,5.99-9.23,10.13-22.38,11.01-37.23.09-1.72.14-3.64.14-5.74,0-13.16-2.69-24.91-7.22-33.47-3.77-7.16-8.65-11.78-13.9-12.4l-.66-.04h0ZM2405.87,3043.97c8.18-12.61,19.36-20.06,31.61-19.32.31.03.83.08,1.57.16,11.43,1.35,21.02,9.47,27.54,21.83,5.77,10.95,9.22,25.48,9.22,41.37,0,1.97-.08,4.19-.22,6.64-1.04,17.63-6.11,33.46-13.45,44.8-8.18,12.61-19.37,20.06-31.61,19.32-.31-.02-.82-.08-1.57-.16-11.43-1.34-21.02-9.47-27.54-21.82-5.78-10.95-9.23-25.49-9.23-41.38,0-1.97.08-4.17.22-6.64,1.06-17.62,6.12-33.46,13.46-44.8h0Z"/>
        <path class="cls-7" d="M2419.91,3051.34c-10.4-.63-19.7,15.95-20.79,37.02-1.08,21.07,6.47,38.65,16.86,39.27,10.39.61,19.69-15.95,20.78-37.02,1.08-21.07-6.47-38.65-16.86-39.27h0Z"/>
        <path class="cls-7" d="M2419.91,3059.56c-1.92-.1-4.3,2.37-6.61,6.48-3.22,5.73-5.46,13.93-5.94,23.23-.05.93-.08,2.14-.08,3.6,0,8.27,1.45,15.54,3.88,20.76,1.61,3.46,3.31,5.63,4.74,5.79h.07c-.05,0-.19-.04,0-.02,1.91.1,4.29-2.37,6.6-6.48,3.22-5.73,5.46-13.93,5.94-23.23.05-.93.08-2.14.08-3.6,0-8.27-1.45-15.54-3.87-20.76-1.62-3.46-3.31-5.63-4.75-5.79h-.05c.05,0,.18.03,0,.02h0ZM2398.75,3057.39c5.22-9.29,12.68-14.78,21.16-14.28l.89.1c8.04.88,14.59,6.86,18.86,16.02,3.44,7.4,5.49,17.19,5.49,27.87,0,1.18-.05,2.65-.14,4.42-.6,11.77-3.57,22.4-7.87,30.06-5.22,9.29-12.69,14.78-21.16,14.28l-.9-.1c-8.04-.88-14.58-6.85-18.86-16.01-3.44-7.4-5.49-17.19-5.49-27.87,0-1.18.05-2.65.14-4.43.61-11.76,3.57-22.39,7.87-30.05h0ZM2415.98,3119.42s.02,0,0,0h0Z"/>
        <path class="cls-7" d="M3148.11,2777.57c-13.15-.79-25.9,12.57-35.9,34.79-10.5,23.32-17.75,56.08-19.27,92.7-.19,4.53-.28,9.2-.28,14,0,32.82,4.84,62.25,12.97,83.82,7.69,20.39,18.18,33.45,29.99,34.93.25.03.66.06,1.2.1,13.15.79,25.9-12.56,35.9-34.78,10.49-23.33,17.75-56.08,19.27-92.71.19-4.53.28-9.2.28-14,0-32.81-4.84-62.25-12.97-83.82-7.68-20.39-18.18-33.45-29.99-34.93-.24-.03-.64-.06-1.2-.1h0ZM3104.27,2806.38c11.61-25.8,27.14-41.25,43.84-40.25.4.03.96.08,1.66.17,15.39,1.93,28.54,17.56,37.69,41.83,8.71,23.1,13.9,54.32,13.9,88.84,0,4.61-.1,9.47-.31,14.57-1.6,38.41-9.26,72.87-20.36,97.58-11.61,25.79-27.13,41.24-43.84,40.24-.4-.03-.95-.08-1.66-.17-15.39-1.93-28.54-17.56-37.69-41.83-8.71-23.1-13.9-54.31-13.9-88.84,0-4.61.11-9.47.31-14.57,1.6-38.41,9.26-72.89,20.36-97.56Z"/>
        <path class="cls-7" d="M3146.38,2872.62c-3.38-.19-6.81,3.15-9.65,8.73-3.28,6.47-5.55,15.64-6.03,25.99-.06,1.19-.08,2.53-.08,3.99,0,9.16,1.47,17.3,3.96,23.22,2.07,4.95,4.74,8.12,7.61,8.5l.36.03c3.37.19,6.81-3.16,9.63-8.73,3.29-6.47,5.55-15.64,6.04-25.99.05-1.2.08-2.53.08-3.99,0-9.16-1.48-17.3-3.96-23.22-2.07-4.95-4.74-8.12-7.63-8.5l-.35-.03h.02ZM3129.04,2874.9c4.47-8.84,10.61-14.11,17.34-13.72.17,0,.45.05.85.1,6.27.83,11.53,6.39,15.1,14.93,3.17,7.57,5.05,17.66,5.05,28.71,0,1.37-.04,2.91-.11,4.61-.58,12.27-3.35,23.33-7.38,31.29-4.48,8.84-10.61,14.11-17.34,13.72-.17-.02-.46-.05-.85-.1-6.27-.84-11.53-6.41-15.11-14.94-3.16-7.56-5.05-17.65-5.05-28.7,0-1.37.05-2.91.12-4.62.58-12.27,3.35-23.32,7.38-31.27h0Z"/>
        <path class="cls-7" d="M3136.73,2879.89c-5.7-.34-10.79,11.27-11.39,25.93-.59,14.66,3.54,26.82,9.24,27.17,5.7.34,10.81-11.27,11.4-25.93.59-14.66-3.55-26.82-9.25-27.17Z"/>
        <path class="cls-7" d="M3136.73,2885.62c-1.04-.06-2.35,1.68-3.62,4.56-1.76,4.02-2.99,9.74-3.25,16.21-.03.64-.05,1.48-.05,2.5,0,5.76.79,10.81,2.12,14.41.89,2.4,1.82,3.89,2.61,3.99h.03s-.1-.02,0-.02c1.05.08,2.36-1.68,3.63-4.56,1.76-4.01,2.98-9.74,3.25-16.21.03-.64.04-1.48.04-2.5,0-5.75-.79-10.81-2.13-14.41-.88-2.4-1.81-3.88-2.6-3.98h-.04s.11,0,0,0h0ZM3125.13,2884.29c2.86-6.51,6.95-10.4,11.59-10.12l.49.05c4.4.55,8,4.65,10.34,10.97,1.88,5.12,3.01,11.92,3.01,19.34,0,.82-.03,1.84-.08,3.08-.33,8.19-1.96,15.6-4.32,20.96-2.86,6.51-6.96,10.4-11.6,10.12l-.49-.05c-4.41-.55-8-4.65-10.34-10.97-1.89-5.12-3.01-11.92-3.01-19.34,0-.82.03-1.84.08-3.07.33-8.19,1.96-15.61,4.32-20.98h0ZM3134.58,2927.28s.02,0,0,0h0Z"/>
        <path class="cls-1" d="M1192.59,2891.25c59.05,31.58,88,55.64,131.93,97.35-57.37-8.78-79.65-18.8-133.69-34.68l1.75-62.67h0Z"/>
        <path class="cls-1" d="M1201.99,2972.52c20.21,6.87,28.56,8.09,45.97,14.34,19.69,7.07,46.81,18.83,38.11,20.58-5.4,1.07-24.91-2.19-37.25-5.19-25.14-6.12-47.25-17.12-46.83-29.73h0Z"/>
        <path class="cls-1" d="M1195.58,2999.85c43.05,14.61,100.47,31.64,84.08,34.92-16.38,3.28-84.69-16.12-84.08-34.92Z"/>
        <path class="cls-7" d="M2258.8,2811.57c-75.41,6.45-216.53,2.62-275.83,47.47-24.31,18.4-52.55,48.36-74.6,70.32,20.66-30.59,38.7-54.5,67.51-78.79,60.56-51.07,201.18-51.27,280.11-60.21l2.82,21.2h0Z"/>
        <path class="cls-7" d="M2250.08,2790.83c40.95-3.25-32.24,84.46-46,95.75-10.73,8.8-42.03,13.36-56.95,15.96l-24.82,4.35,4.38-22.48c.28-1.4,4.06-2.04,9.16-2.9,43.78-7.34,47.28-56.02,20.71-62.28-.03,0-24.49-3.08-25.1-3.1l2.54-10.07,116.1-15.24h0Z"/>
        <path class="cls-7" d="M1268.4,2712.04c9.92,10.64,15.13,23.26,18.24,38.7,3.89,19.38,7.36,41.46,12.03,74.16,0-25.06.45-30.44-1.19-54.92-2.29-34.08-7.74-56.05-20.21-72.11-3.23,4.26-6.18,9.03-8.88,14.16h0Z"/>
        <path class="cls-7" d="M1244.78,2801.88l.3.26c6.49,5.7,25.3,18.78,25.8,18,.54-.83-1.56-3.31-.1-18.77.13-1.42-2-3.25-4.85-5.74-23.26-20.21-2.51-85.06,20.07-51.06,3.49,5.25,8.57,11.41,8.75,11.5l-3.4-27.38-22.36-17.74c-17.43,32.39-24.21,79.21-24.21,90.25v.68h-.01Z"/>
        <path class="cls-7" d="M2689.15,2526.4c26.08-.62,50.98,6.56,79.46,19.08,24.46,10.76,35.26,24.35,40.04,37.54,2.33,6.46,3.22,12.81,3.57,18.68,9.83-1.86,17.4-4.14,20.36-6.9,3.93-3.66,7.7-8.04,4.74-16.36-1.75-4.93-5.85-11.25-13.69-19.64-20.61-22.06-66.05-46.1-115.92-40.46-6.3.59-12.76,3.08-18.57,8.06Z"/>
        <path class="cls-7" d="M2022.38,2510.66c-77.83-18.83-34.82-73.18,128.45-153.38-7.28-.22-99.59-1.99-107.76,1.01-75.26,27.73-144.12,70.05-222.96,131.2-12.19,11.22-24.67,21.18-35.96,28.61-3.88,3.15-7.79,6.35-11.72,9.59l607.77,53.87c-109.21-15.75-280-52.06-357.82-70.9h0Z"/>
        <path class="cls-1" d="M1736.69,2511.87c247.54,13.93,529.61,37.5,774.65,75.07,20.84,3.2,38.83,5.43,58.67,11.88l-10.88-.8c-277.03-24.7-544.54-51.32-823.52-63.12-6.39-.31-11.34-5.7-11.04-12.05.31-6.35,5.73-11.26,12.13-10.96h0Z"/>
        <path class="cls-7" d="M2500.63,2626.01c-49.65,18.86-542.52,180.62-615.53,180.62-39.54,0-391.32-44-541.59-68.03-22.59-3.61-29.42-15.63-28.74-21.88-8.8,17.23-6.19,31.86,26.03,36.46,52.42,7.47,128.32,18.44,208.06,29.74,19.19,2.73,38.62,5.46,57.99,8.18,47.14,6.61,93.99,13.07,136.59,18.73,74.94,9.98,123.82,21.96,169.98,17.07,39.81-4.2,158.11-38.56,283.67-78.25,144.66-45.72,298.39-98.22,352.6-119.78,33.25-13.22,20.85-23.31-8.52-30.99,1.96,6.92-10.1,16.56-40.54,28.14h0Z"/>
        <path class="cls-7" d="M1147.6,3035.56c-20.04,40.48,10.34,66.7,52.69,84.1,84.35,34.66,214.24,58.51,348.01,82.74,158.76,28.75,323.88,56.21,437.53,77.48l-26.04-1.93c-213.46-22.29-505.93-64.55-716.12-118.4-82.22-21.05-158.16-58.94-120.61-138.33l24.55,14.35h0Z"/>
        <polygon class="cls-7" points="2552.51 3192.91 3042.05 3036.14 2542.02 3226.19 2552.51 3192.91"/>
        <path class="cls-7" d="M2528.28,2823.95c109.79-31.39,497.55-113.45,591.63-109.42-209.92,48.18-396.14,95.5-566.99,152l-24.64-42.57Z"/>
      </g>
    </g>
    <text class="cls-12" transform="translate(277.23 1819.59) rotate(-73.91)"><tspan x="0" y="0">B</tspan></text>
    <text class="cls-12" transform="translate(352.47 1561.46) rotate(-66.08)"><tspan x="0" y="0">R</tspan></text>
    <text class="cls-12" transform="translate(461.77 1324.32) rotate(-60.34)"><tspan x="0" y="0">I</tspan></text>
    <text class="cls-12" transform="translate(521.85 1212.32) rotate(-54.51)"><tspan x="0" y="0">G</tspan></text>
    <text class="cls-12" transform="translate(677.1 994.57) rotate(-46.51)"><tspan x="0" y="0">H</tspan></text>
    <text class="cls-12" transform="translate(871.07 793.08) rotate(-39.07)"><tspan x="0" y="0">T</tspan></text>
    <text class="cls-12" transform="translate(1052.19 649.91) rotate(-34.06)"><tspan x="0" y="0"> </tspan></text>
    <text class="cls-12" transform="translate(1142.63 585.99) rotate(-29.02)"><tspan x="0" y="0">S</tspan></text>
    <text class="cls-12" transform="translate(1343 473.42) rotate(-21.48)"><tspan x="0" y="0">A</tspan></text>
    <text class="cls-12" transform="translate(1604.67 372.86) rotate(-13.98)"><tspan x="0" y="0">F</tspan></text>
    <text class="cls-12" transform="translate(1815 318.63) rotate(-6.75)"><tspan x="0" y="0">A</tspan></text>
    <text class="cls-12" transform="translate(2093.15 286.9) rotate(1.09)"><tspan x="0" y="0">R</tspan></text>
    <text class="cls-12" transform="translate(2354.29 295.57) rotate(6.76)"><tspan x="0" y="0">I</tspan></text>
    <text class="cls-12" transform="translate(2481.11 308.56) rotate(12.06)"><tspan x="0" y="0">S</tspan></text>
    <text class="cls-12" transform="translate(2707.17 360.01) rotate(17.14)"><tspan x="0" y="0"> </tspan></text>
    <text class="cls-12" transform="translate(2813.55 388.69) rotate(22.96)"><tspan x="0" y="0">A</tspan></text>
    <text class="cls-12" transform="translate(3070.8 500.06) rotate(30.42)"><tspan x="0" y="0">F</tspan></text>
    <text class="cls-12" transform="translate(3265.76 613.82) rotate(37.56)"><tspan x="0" y="0">R</tspan></text>
    <text class="cls-12" transform="translate(3470.5 775.96) rotate(43.25)"><tspan x="0" y="0">I</tspan></text>
    <text class="cls-12" transform="translate(3565.09 861.03) rotate(48.89)"><tspan x="0" y="0">C</tspan></text>
    <text class="cls-12" transform="translate(3732.16 1051.54) rotate(56.66)"><tspan x="0" y="0">A</tspan></text>
    <text class="cls-12" transform="translate(3883.08 1289.51) rotate(62.43)"><tspan x="0" y="0"> </tspan></text>
    <text class="cls-12" transform="translate(3936.09 1386.89) rotate(67.31)"><tspan x="0" y="0">L</tspan></text>
    <text class="cls-12" transform="translate(4011.37 1563.71) rotate(73.19)"><tspan x="0" y="0">T</tspan></text>
    <text class="cls-12" transform="translate(4078.97 1782.26) rotate(80.83)"><tspan x="0" y="0">D</tspan></text>
  </g>
</svg>