<?xml version="1.0" encoding="UTF-8"?>
<svg xmlns="http://www.w3.org/2000/svg" viewBox="0 0 8500 7000">
  <defs>
    <style>
      .cls-1 {
        letter-spacing: 0em;
      }

      .cls-2 {
        letter-spacing: .04em;
      }

      .cls-3, .cls-4, .cls-5, .cls-6, .cls-7, .cls-8, .cls-9, .cls-10, .cls-11, .cls-12, .cls-13, .cls-14 {
        stroke-width: 0px;
      }

      .cls-3, .cls-4, .cls-9, .cls-10, .cls-12 {
        fill-rule: evenodd;
      }

      .cls-15 {
        isolation: isolate;
      }

      .cls-4 {
        fill: #a88840;
      }

      .cls-5, .cls-9 {
        fill: #eed9a2;
      }

      .cls-16 {
        letter-spacing: .04em;
      }

      .cls-17 {
        letter-spacing: .03em;
      }

      .cls-18 {
        letter-spacing: .02em;
      }

      .cls-6 {
        fill: #0f194c;
      }

      .cls-19 {
        letter-spacing: .04em;
      }

      .cls-7 {
        fill: #917330;
      }

      .cls-8 {
        opacity: .54;
      }

      .cls-8, .cls-13 {
        fill: #211b21;
      }

      .cls-10 {
        fill: #fff;
      }

      .cls-20 {
        letter-spacing: 0em;
      }

      .cls-21 {
        letter-spacing: 0em;
      }

      .cls-22, .cls-23 {
        font-size: 609.49px;
        letter-spacing: .04em;
      }

      .cls-22, .cls-23, .cls-24 {
        font-family: FranklinGothic-DemiCond, 'Franklin Gothic Demi Cond';
        font-weight: 300;
      }

      .cls-11 {
        fill: #3c663d;
        mix-blend-mode: multiply;
      }

      .cls-12 {
        fill: #705f3a;
      }

      .cls-23 {
        fill: #847e7a;
      }

      .cls-14 {
        fill: #829ba3;
      }

      .cls-24 {
        font-size: 231.96px;
      }

      .cls-25 {
        letter-spacing: .05em;
      }
    </style>
  </defs>
  <g class="cls-15">
    <g id="Layer_1" data-name="Layer 1">
      <g>
        <rect class="cls-6" x="4292.91" y="3410.94" width="35.58" height="0"/>
        <g>
          <ellipse class="cls-7" cx="4255.19" cy="2714.41" rx="2481.23" ry="2464.99"/>
          <g>
            <ellipse class="cls-14" cx="4255.19" cy="2714.41" rx="2243.91" ry="2229.22"/>
            <path class="cls-11" d="m2083.27,3276.48c250.77,959.05,1128.08,1667.15,2171.92,1667.15s1921.15-708.1,2171.92-1667.15H2083.27Z"/>
            <g>
              <path class="cls-8" d="m2769.69,3499.16h-326.16c-12.23,0-22.24-9.94-22.24-22.09h0c0-12.15,10.01-22.09,22.24-22.09h326.16c12.23,0,22.24,9.94,22.24,22.09h0c0,12.15-10.01,22.09-22.24,22.09Z"/>
              <path class="cls-8" d="m2904.3,3628.51h-196.36c-12.23,0-22.24-9.94-22.24-22.09h0c0-12.15,10.01-22.09,22.24-22.09h196.36c12.23,0,22.24,9.94,22.24,22.09h0c0,12.15-10.01,22.09-22.24,22.09Z"/>
              <path class="cls-8" d="m5741.79,3493.12h326.15c12.23,0,22.24-9.94,22.24-22.09h0c0-12.15-10.01-22.09-22.24-22.09h-326.15c-12.23,0-22.24,9.94-22.24,22.09h0c0,12.15,10.01,22.09,22.24,22.09Z"/>
              <path class="cls-8" d="m5607.17,3622.47h196.36c12.23,0,22.24-9.94,22.24-22.09h0c0-12.15-10.01-22.09-22.24-22.09h-196.36c-12.23,0-22.24,9.94-22.24,22.09h0c0,12.15,10.01,22.09,22.24,22.09Z"/>
              <path class="cls-8" d="m3642.07,4474.69h196.36c12.23,0,22.24-9.94,22.24-22.09h0c0-12.15-10.01-22.09-22.24-22.09h-196.36c-12.23,0-22.24,9.94-22.24,22.09h0c0,12.15,10.01,22.09,22.24,22.09Z"/>
              <path class="cls-8" d="m4653.53,4339.01h196.36c12.23,0,22.24-9.94,22.24-22.09h0c0-12.15-10.01-22.09-22.24-22.09h-196.36c-12.23,0-22.24,9.94-22.24,22.09h0c0,12.15,10.01,22.09,22.24,22.09Z"/>
              <path class="cls-8" d="m4775.21,4248.35h196.36c12.23,0,22.24-9.94,22.24-22.09h0c0-12.15-10.01-22.09-22.24-22.09h-196.36c-12.23,0-22.24,9.94-22.24,22.09h0c0,12.15,10.01,22.09,22.24,22.09Z"/>
              <path class="cls-8" d="m3824.58,4571.39h196.36c12.23,0,22.24-9.94,22.24-22.09h0c0-12.15-10.01-22.09-22.24-22.09h-196.36c-12.23,0-22.24,9.94-22.24,22.09h0c0,12.15,10.01,22.09,22.24,22.09Z"/>
            </g>
            <g>
              <polygon class="cls-13" points="2225.86 3277.24 2921.84 2585.83 3361.4 2840.56 4240.52 1603.29 5229.53 2767.78 5485.94 2549.44 5815.61 2949.73 6181.91 2840.56 6427.1 3294.68 2225.86 3277.24"/>
              <polygon class="cls-5" points="3361.4 2840.56 2921.84 2585.83 2995.1 2949.73 3141.62 2895.15 3196.56 3022.51 3489.6 3131.68 3361.4 2840.56"/>
              <polygon class="cls-5" points="5485.94 2549.44 5815.61 2949.73 5559.2 3004.32 5595.83 2822.36 5485.94 2549.44"/>
              <polygon class="cls-5" points="6181.91 2840.56 6427.1 3294.68 6126.97 3058.9 6181.91 2840.56"/>
              <polygon class="cls-5" points="5229.53 2767.78 4240.52 1603.29 4295.46 2312.9 4478.61 2294.71 4478.61 2458.46 4735.02 2403.88 5229.53 2767.78"/>
            </g>
          </g>
        </g>
        <path class="cls-3" d="m3252.23,3877.55c-420.86,61.27-775.49,152.18-233.81,231.05,541.67,78.87,1220.86,242.12,1496.41,127.13l1096.61-457.64c92.1-38.43,75.41-85.5-18.56-104.62-140.87-28.64-303.33-57.97-329.83-59.41,0,0-1917.3,189.66-2010.82,263.5Z"/>
        <g>
          <path class="cls-3" d="m4590.44,3535.49c-78.22-4.68-116.06-6.93-192.89-11.53-95.77-5.73-181.93,134.28-192.45,312.72-10.51,178.44,58.6,327.75,154.38,333.46,78.22,4.68,116.07,6.95,192.9,11.54,95.77,5.72,181.93-134.29,192.45-312.73,10.51-178.44-58.6-327.73-154.39-333.46Z"/>
          <path class="cls-3" d="m5538.81,3388.92c-42.89-2.57-63.64-3.8-105.76-6.33-52.51-3.14-99.75,95-105.52,219.21-5.77,124.21,32.13,227.45,84.64,230.58,42.89,2.57,63.65,3.81,105.77,6.33,52.51,3.14,99.75-95.01,105.51-219.21,5.77-124.21-32.14-227.45-84.65-230.58Z"/>
          <path class="cls-3" d="m3418.88,3607.27c-42.89-9.33-63.64-13.84-105.76-23.01-52.51-11.43-99.76,79.25-105.51,202.55-5.77,123.29,32.14,232.52,84.63,243.94,42.89,9.33,63.65,13.86,105.77,23.01,52.51,11.43,99.75-79.25,105.51-202.55,5.77-123.29-32.14-232.51-84.65-243.94Z"/>
          <path class="cls-10" d="m2845.63,3744.38c-5.2-58.84-7.22-131.59,7.38-184.81,10.54-38.42,31.52-78.36,58.08-109.81,3.15-34.19,13.44-73.89,24.21-103.48,14.22-39.09,35.54-77.41,69.44-102.95,18.33-13.8,40.94-22.83,62.19-31.26,27.14-10.77,54.69-20.46,82.29-29.94,73.49-25.25,147.61-48.65,221.83-71.71,96.44-29.96,193.14-59.09,290.01-87.65,260.5-212.2,443.41-290.75,787.41-294.44,265.69-2.85,632.77,18.39,862.16,161.47,67.35,42.01,138.89,96.54,191.55,155.86,15.16,17.09,35.69,32.65,54.23,46,21.72,15.63,44.33,30.1,67.4,43.74,12.96,7.68,26.19,15.62,39.81,22.07,51.49,24.4,63.24,77.48,71.01,128.01,5.97,38.79,9.6,77.88,12.9,116.96,4.27,50.43,1.42,101.76,7.34,152.79,12.67,109.42-41.4,147.86-129.34,149.81l-19.46-311.72v-71.14l-2526.34,184.18c-90.65-20.45-101.2,372.47-117.08,388.24-126.39-7.48-150.22-103.85-117.01-150.23Z"/>
          <path class="cls-3" d="m3685.19,3067.87c251.72-206.4,422.76-285.82,763.82-289.48,248.87-2.66,614.11,16.15,834.82,153.81,61.26,38.22,132.2,92.11,180.53,146.57,17.5,19.72,41.12,38.07,62.47,53.43,22.93,16.51,46.9,31.86,71.18,46.21,13.95,8.26,29.28,17.33,43.91,24.25,32.28,15.3,38.19,59.89,42.88,90.38,5.79,37.57,9.32,75.87,12.51,113.6,2.93,34.58,5.37,69.16,7.72,103.75,1.29,18.95,2.03,39.06,4.22,57.92,3.33,28.8-3.48,62.95-20.03,86.12l-3.13,4.4-118.5,96.64v-193.97c0-27.19-1.68-56.42-7.44-83.39-1.46-6.84-6.14-25.09-11.46-33.97-2.03.97-4.08,2.18-5.25,2.92-21.64,13.62-39.9,91.52-44.85,116.01-10.32,51.02-17.28,107.32-20.01,159.9l-1.45,27.92-782.9,266.07,8.52-72.79c9.9-84.51,15.93-246.67-16.51-327.84-9.44-23.58-26.25-48.93-51.68-57.43-57.04-19.08-111.32,53.85-133.53,93.3-16.65,29.57-28.47,62.34-37.22,95.41-17.3,65.4-23.44,134.61-26.68,202.81-1.24,25.9-1.84,51.98-3.58,77.79-1.45,21.45-3.27,47.21-18.56,63.03-34.78,35.91-163.95,32.95-210.97,31.96-78.15-1.65-157.13-8.31-235.21-16.84-117.96-12.89-235.95-30.66-353.3-50.77-105.43-18.06-643.94-109.11-725.83-195.34-32.47-34.21-18.03-73.26,8.12-100.05-6.2-58.76-9.55-138.65,3.83-187.47,9.7-35.37,31.43-75.07,58.89-102.6v-.6c0-31.07,11.87-77.9,22.18-106.23,10.8-29.66,27.02-60.89,52.49-80.07,13.43-10.1,34.64-18.39,50.43-24.66,26.33-10.44,53.24-19.91,80.08-29.13,72.9-25.05,146.67-48.34,220.4-71.24,99.4-30.88,199.16-60.9,299.09-90.32Z"/>
          <path class="cls-4" d="m3708.1,3107.74c-142.23,41.82-602.07,178.87-644.94,211.14-42.86,32.28-58.46,133.95-58.46,153.29v19.36s-43.4,33.14-60.4,95.12c-16.98,61.97,0,193.56,0,193.56,0,0-43.84,29.32-23.38,50.87,20.46,21.55,144.19,86.05,699.5,181.2,555.32,95.14,742.37,67.61,761.85,47.48,19.47-20.12-9.74-271.57,79.88-430.76,89.63-159.18,218.24-143.74,265-26.73,46.77,116.99,19.49,349.58,19.49,349.58l687.82-233.73s-14.42-117.93,6.11-216.17c9.56-45.81,35.87-98.69,58.18-112.74,42.64-26.87,104.1-.08,120.98,40.63,32.16,77.56,23.98,130.53,24.5,206.31l8.47-8.55s16.55-23.21,12.65-56.83c-3.89-33.62-17.03-317.51-40.41-328.58-23.38-11.08-140.28-76.15-192.89-135.43-35.96-40.51-136.5-130.97-269.32-191.02-167.49-75.74-536.88-95.22-710.58-93.35-328.72,3.52-490.54,76.48-744.04,285.36Z"/>
          <path class="cls-9" d="m3139.96,3427.89c-4.82,5.18-10.37,35.84-10.64,73.27-.13,17.39,12.05,29.8,27.75,34,144.15,38.43,412.21,72.61,580,87.35,29.81,2.61,58.77,8.45,72.79-21.28,14.51-30.78,15.15-54.6-2.29-71.55-12.52-12.16-221.46-37.25-394.15-61.19-152.55-21.16-271.89-42.27-273.45-40.6h0Zm-15.3,117.24c-.41-3.25,128.82,52.28,313.12,69.83,74.8,7.14,223.5,33.19,320.86,26.58,33.22-2.26,33.07-4.6,9.33,24.35-57.39,69.95-118.71,73.56-253.92,59.76-145.89-14.89-243.13-36.95-325.42-66.78-37.5-13.58-57.99-66.69-63.97-113.74Z"/>
          <path class="cls-12" d="m2938.76,3618.85c-6.69,66.57,5.54,161.36,5.54,161.36,0,0-43.84,29.32-23.38,50.87,20.46,21.55,144.19,86.05,699.5,181.2,555.32,95.14,742.37,67.61,761.85,47.48,19.47-20.12-9.74-271.57,79.88-430.76,89.63-159.18,218.24-143.74,265-26.73,46.77,116.99,19.49,349.58,19.49,349.58l687.82-233.73s-7.38-266.89,64.3-308.58c70.46-40.98,103.56,13.55,120.96,77.21,20.29,74.22,9.24,167.54,11.05,165.5l21.92-24.65s16.55-23.21,12.65-56.83c-3.1-26.77-12.06-212.27-27.39-292.3-3.11,14.04-7.06,28.6-11.99,41.18-15.59,39.71-237.73,55.46-237.73,55.46l-654.68,150.56s-44.82-72.36-130.55-63.94c-85.73,8.43-146.13,136.44-196.8,232.14-39.91,75.38-148.72,119-217.89,128.87,71.47,51.58,133.04,201.86,97.06,211-37.03,9.39-253.31-9.35-270.83-29.75-17.54-20.4-40.92-159.24-52.61-163.81-11.69-4.56-183.16-24.5-183.16-24.5,40.2-8.84,84.84-16.27,129.76-21.21-87.72,1.42-166.98,9.82-178.44,15.77-23.38,12.16-120.81-7.22-120.81-7.22,0,0-492.95-70.12-518.29-89.06-24.36-18.21-119.08-81.84-152.24-95.08Z"/>
          <path class="cls-3" d="m2941.45,3599.35c-12.03,65.58-4.94,172.16-4.94,172.16,2.55,10.82,26.17,21.66,41.81,25.17,16.43,3.69,32.76,8.21,37.61-3.94,8.59-21.53,17.78-61.24,20.47-88.46,3.78-38.35,1.03-48.26-94.96-104.93Z"/>
          <path class="cls-3" d="m3063.16,3318.88c-42.86,32.28-58.46,133.95-58.46,153.29v19.36s-.86.67-2.4,1.98c6.31,6.58,50.67,32.36,74.86,44.39,6.11,3.04,13.64-2.23,14.15-6.96,3.63-33.37.62-96.03.62-105.68,0-7.22-16.53-115.59-28.77-106.38Z"/>
          <path class="cls-3" d="m4131.68,2861.2c-146.4,41.07-267.46,117.95-422.98,246.04l1041.36,92.3s121.66-292.33,113.01-304.89c-8.66-12.57-508.87-26.91-731.4-33.45Z"/>
          <path class="cls-3" d="m3806.04,3022.11c-45.8-28.87-112.04-22.19-134.46,54.88-22.41,77.05,72.09,14.95,134.46-54.88Z"/>
          <path class="cls-3" d="m3999.91,3495.37c-85.72,56.81-190.94,174.42-99.36,168.27,91.58-6.13,354.62-15.57,403.33-64.93,48.72-49.35,116.91-155.61,72.09-164.09-44.81-8.5-282.52,31.5-376.06,60.75Z"/>
          <path class="cls-3" d="m3128.96,3410.23c-5.02,5.18-10.8,35.84-11.1,73.27-.13,17.39,12.57,29.81,28.92,34,150.16,38.43,429.4,72.61,604.19,87.35,31.05,2.61,61.23,8.45,75.83-21.28,15.11-30.78,15.79-54.6-2.39-71.55-13.03-12.16-230.68-37.25-410.58-61.19-158.91-21.16-283.24-42.27-284.87-40.6h0Zm-8.23,121.65c-.43-3.25,126.47,47.86,318.46,65.43,77.93,7.13,232.83,33.19,334.24,26.57,34.6-2.26,34.46-4.6,9.72,24.35-59.78,69.95-123.64,73.55-264.49,59.76-152-14.89-249.41-39.89-335.14-69.71-39.06-13.58-56.55-59.33-62.78-106.39Z"/>
          <path class="cls-3" d="m3739.8,3815.66c138.35-30.43,329.29-44.18,403.33,2.83,74.04,47.01,140.29,205.83,103.27,215.24-37.01,9.39-253.31-9.35-270.84-29.75-17.54-20.41-40.92-159.24-52.61-163.81-11.69-4.56-183.16-24.5-183.16-24.5Z"/>
          <path class="cls-3" d="m4104.16,3874.23c-58.52-2.6-82.22-6.59-132.79-8.2-57.17-1.84-136.5-.63-112.71,9,14.74,5.98,70.3,14.58,105.67,18.31,72.12,7.6,137.22,4.11,139.83-19.11Z"/>
          <path class="cls-3" d="m4141.19,3944.19c-124.7-5.51-290.32-17.35-245.51.81,44.81,18.16,241.62,33.8,245.51-.81Z"/>
          <path class="cls-3" d="m3053.94,3823.06c46.76-55.28,50.65-89.89,116.91-82.05,66.24,7.83,494.91,81.85,494.91,81.85,0,0,52.61,14.75,99.38,75.62l46.76,60.88s-274.74,2.92-757.95-136.3Z"/>
          <path class="cls-3" d="m4818.29,3787.23l508.55-172.85-64.3,94.88-448.16,153.22,3.9-75.25Z"/>
          <path class="cls-3" d="m5639.81,3282.2c-164.67-51.91-746.7,54.73-1136.86,138.3l-17.85,2.24c181.37-75.73,919.22-187.55,1092.59-206.56,22.05,13.01,39.62,22.37,47.24,25.98,3.48,1.65,6.74,9.38,9.77,21.4l5.12,18.63Z"/>
          <path class="cls-3" d="m4918.27,2970.85c-35.84,93.27-74.81,244.9-64.91,245.49,11.69.7,512.44-75.82,520.24-86.97,16.72-23.93-97.25-105.82-160.35-141.51-106.69-60.38-201.95-75.11-249.03-82.95-24.68-4.12-31.88,29.32-45.95,65.94Z"/>
          <path class="cls-3" d="m4956.63,3094.76c-25.34,2.36-52.61,27.82-52.61,97.51,0,12.32.18,22.53.48,30.98,3.2,90.05,82.93,77.31,77.21-6.97,0,0,124.94-4.03,141.51-19.5,8.36-7.81,16.14-17.97-11.93-48.03-27.5-29.44-88.13-61.51-154.66-53.99Z"/>
          <polygon class="cls-3" points="4817.86 3756.54 5420.37 3573.51 5292.88 3656.37 4813.86 3857.99 4817.86 3756.54"/>
          <path class="cls-3" d="m3171.06,3274.99l-12.67,10.65c-33.89,39.39-114.77,109.74-25.58,122.45,127.78,18.2,359.99,52.01,537.21,75.58,99.99,13.31,165.2,29.3,226.79,22.77,53.11-5.61,210.96-51.45,378.49-104.4,193.01-61,398.12-131.05,470.45-159.81,56.52-22.46,14.21-38.17-47.85-49.06l42.05-9.67c.3.18,94.58,26.38,46.54,64.25-16.55,13.12-269.5,101.32-503.42,175.25-168.65,53.3-327.98,99.48-382.65,105.27-70.57,7.46-124.71-2.61-240.19-19.14-168.77-24.17-408.82-62.12-529.25-79.28-108.61-15.49-49.29-88.17-7.96-137.59,14.19-5.32,30.31-11.11,48.03-17.27Z"/>
          <path class="cls-10" d="m4600.26,3609.96c-31.98-1.91-63.02,23.31-87.35,65.62-25.53,44.42-43.19,107.02-46.89,177.27-.46,8.68-.67,17.63-.67,26.83,0,62.95,11.79,119.56,31.57,161.18,18.69,39.35,44.23,64.72,72.99,67.93.6.06,1.59.14,2.91.23,31.99,1.91,63.04-23.31,87.35-65.62,25.54-44.42,43.19-107.02,46.89-177.27.46-8.69.69-17.64.69-26.83,0-62.96-11.8-119.57-31.57-161.18-18.71-39.36-44.25-64.72-72.99-67.93-.6-.07-1.57-.14-2.92-.23h0Zm-106.68,53.91c28.24-49.11,66.04-78.28,106.68-75.86,1,.06,2.34.18,4.05.38,37.46,4.18,69.45,34.55,91.71,81.4,21.19,44.58,33.82,104.6,33.82,170.84,0,8.83-.25,18.15-.77,27.94-3.88,73.63-22.54,139.52-49.56,186.54-28.24,49.11-66.04,78.28-106.69,75.86-1-.06-2.33-.19-4.04-.38-37.46-4.18-69.45-34.56-91.71-81.4-21.19-44.58-33.82-104.61-33.82-170.84,0-8.84.25-18.17.77-27.95,3.87-73.62,22.53-139.51,49.56-186.53Z"/>
          <path class="cls-10" d="m4596.06,3792.27c-8.22-.5-16.58,5.82-23.45,16.43-7.98,12.32-13.5,29.85-14.68,49.69-.13,2.29-.19,4.85-.19,7.65,0,17.57,3.59,33.24,9.62,44.66,5.05,9.56,11.55,15.72,18.54,16.55l.89.05c8.21.49,16.58-5.82,23.44-16.43,7.99-12.32,13.52-29.86,14.69-49.68.12-2.29.19-4.85.19-7.66,0-17.56-3.59-33.24-9.63-44.66-5.03-9.55-11.54-15.72-18.54-16.54l-.88-.05h0Zm-42.18,3.82c10.91-16.83,25.83-26.76,42.18-25.78.41.04,1.11.11,2.09.22,15.25,1.8,28.04,12.63,36.75,29.12,7.7,14.61,12.3,34,12.3,55.2,0,2.63-.1,5.59-.29,8.86-1.39,23.52-8.15,44.64-17.95,59.77-10.91,16.83-25.84,26.76-42.18,25.78-.42-.02-1.1-.1-2.09-.21-15.25-1.79-28.05-12.63-36.75-29.11-7.71-14.61-12.31-34.01-12.31-55.21,0-2.63.11-5.57.29-8.86,1.41-23.51,8.16-44.64,17.96-59.77Z"/>
          <path class="cls-10" d="m4572.61,3805.92c-13.88-.84-26.29,21.28-27.74,49.39-1.44,28.11,8.63,51.57,22.5,52.39,13.86.82,26.27-21.28,27.73-49.39,1.44-28.11-8.63-51.57-22.49-52.39Z"/>
          <path class="cls-10" d="m4572.61,3816.89c-2.56-.14-5.74,3.16-8.82,8.64-4.3,7.65-7.28,18.58-7.92,30.99-.06,1.24-.1,2.85-.1,4.8,0,11.03,1.93,20.74,5.18,27.7,2.15,4.62,4.41,7.51,6.33,7.73h.09c-.07-.01-.25-.05,0-.02,2.55.14,5.73-3.16,8.81-8.64,4.3-7.65,7.28-18.58,7.92-30.99.06-1.24.1-2.85.1-4.8,0-11.03-1.94-20.74-5.17-27.7-2.16-4.62-4.41-7.51-6.34-7.73h-.07c.07.01.24.04,0,.02h0Zm-28.23-2.9c6.96-12.39,16.92-19.72,28.23-19.05l1.19.13c10.73,1.18,19.47,9.15,25.16,21.38,4.59,9.87,7.33,22.94,7.33,37.18,0,1.58-.06,3.53-.18,5.9-.8,15.71-4.76,29.89-10.5,40.11-6.96,12.39-16.93,19.72-28.23,19.05l-1.2-.14c-10.73-1.17-19.46-9.14-25.16-21.36-4.59-9.87-7.33-22.94-7.33-37.18,0-1.58.06-3.53.19-5.91.81-15.69,4.76-29.87,10.5-40.1h0Zm22.99,82.77s.02,0,0,0h0Zm5.24-79.89"/>
          <path class="cls-10" d="m5544.21,3440.64c-17.54-1.05-34.56,16.77-47.9,46.42-14.01,31.11-23.68,74.82-25.71,123.69-.25,6.05-.37,12.28-.37,18.68,0,43.79,6.46,83.06,17.31,111.83,10.26,27.2,24.26,44.63,40.02,46.61.34.04.88.08,1.6.13,17.54,1.05,34.56-16.76,47.9-46.4,14-31.13,23.68-74.82,25.71-123.7.25-6.05.37-12.28.37-18.68,0-43.78-6.46-83.06-17.31-111.83-10.25-27.2-24.26-44.63-40.02-46.61-.32-.04-.86-.08-1.6-.13h0Zm-58.49,38.44c15.49-34.42,36.21-55.04,58.49-53.71.54.04,1.28.11,2.21.23,20.54,2.58,38.08,23.43,50.29,55.81,11.62,30.82,18.54,72.47,18.54,118.53,0,6.15-.13,12.64-.42,19.44-2.13,51.25-12.35,97.23-27.17,130.19-15.49,34.41-36.2,55.03-58.49,53.69-.54-.04-1.27-.11-2.21-.23-20.54-2.58-38.08-23.43-50.29-55.81-11.62-30.82-18.54-72.46-18.54-118.53,0-6.15.14-12.64.42-19.44,2.13-51.25,12.36-97.25,27.17-130.17Z"/>
          <path class="cls-10" d="m5541.9,3567.47c-4.51-.26-9.09,4.2-12.87,11.65-4.37,8.63-7.4,20.87-8.04,34.68-.08,1.59-.11,3.38-.11,5.32,0,12.22,1.96,23.08,5.28,30.98,2.76,6.6,6.33,10.84,10.16,11.34l.48.04c4.5.26,9.09-4.21,12.85-11.65,4.39-8.63,7.41-20.87,8.06-34.68.06-1.6.11-3.38.11-5.32,0-12.22-1.98-23.08-5.29-30.98-2.76-6.6-6.33-10.84-10.18-11.34l-.47-.04h0Zm-23.13,3.04c5.97-11.8,14.15-18.83,23.13-18.31.22.01.6.06,1.14.13,8.36,1.11,15.38,8.53,20.15,19.92,4.23,10.1,6.74,23.56,6.74,38.3,0,1.83-.05,3.88-.14,6.15-.77,16.37-4.47,31.13-9.85,41.75-5.98,11.79-14.16,18.83-23.13,18.3-.23-.02-.61-.06-1.14-.13-8.36-1.12-15.38-8.55-20.16-19.93-4.22-10.09-6.74-23.55-6.74-38.29,0-1.83.06-3.88.16-6.16.77-16.37,4.47-31.11,9.85-41.72Z"/>
          <path class="cls-10" d="m5529.03,3577.17c-7.61-.45-14.4,15.04-15.2,34.6-.79,19.56,4.72,35.79,12.33,36.25,7.6.45,14.42-15.04,15.21-34.6.79-19.56-4.73-35.79-12.34-36.25Z"/>
          <path class="cls-10" d="m5529.03,3584.81c-1.39-.08-3.14,2.24-4.83,6.09-2.35,5.36-3.99,12.99-4.34,21.63-.04.86-.06,1.98-.06,3.33,0,7.68,1.06,14.42,2.83,19.23,1.19,3.2,2.43,5.19,3.48,5.32h.04s-.13-.02,0-.02c1.4.1,3.15-2.24,4.84-6.09,2.35-5.35,3.98-12.99,4.34-21.63.04-.86.05-1.97.05-3.33,0-7.67-1.06-14.42-2.84-19.23-1.18-3.2-2.42-5.18-3.47-5.31h-.05s.14.01,0,.01h0Zm-15.47-1.77c3.82-8.69,9.27-13.87,15.47-13.5l.66.07c5.87.73,10.67,6.21,13.79,14.64,2.51,6.83,4.01,15.9,4.01,25.8,0,1.09-.04,2.46-.1,4.11-.44,10.93-2.61,20.81-5.76,27.97-3.82,8.69-9.29,13.88-15.48,13.5l-.65-.07c-5.89-.73-10.68-6.21-13.79-14.64-2.52-6.83-4.02-15.9-4.02-25.8,0-1.09.04-2.46.1-4.09.44-10.93,2.62-20.83,5.77-27.99h0Zm12.6,57.36s.02,0,0,0h0Zm2.87-55.62"/>
          <path class="cls-3" d="m2935.07,3592.32c78.79,42.13,117.42,74.24,176.03,129.89-76.54-11.71-106.27-25.08-178.38-46.27l2.34-83.62Z"/>
          <path class="cls-3" d="m2947.61,3700.75c26.96,9.16,38.1,10.79,61.33,19.13,26.27,9.43,62.45,25.13,50.85,27.46-7.2,1.43-33.24-2.92-49.7-6.92-33.54-8.17-63.04-22.84-62.48-39.67Z"/>
          <path class="cls-3" d="m2939.05,3737.22c57.44,19.49,134.05,42.21,112.18,46.59-21.85,4.37-113-21.51-112.18-46.59Z"/>
          <path class="cls-10" d="m4357.66,3486.01c-100.61,8.61-288.91,3.49-368.02,63.34-32.44,24.55-70.11,64.52-99.54,93.83,27.57-40.82,51.63-72.71,90.08-105.12,80.8-68.14,268.43-68.41,373.73-80.33l3.76,28.29Z"/>
          <path class="cls-10" d="m4346.02,3458.33c54.64-4.33-43.01,112.69-61.38,127.75-14.32,11.74-56.08,17.82-75.99,21.3l-33.12,5.81,5.84-30c.37-1.87,5.42-2.72,12.22-3.87,58.41-9.79,63.08-74.75,27.63-83.1-.04,0-32.68-4.11-33.49-4.13l3.39-13.43,154.9-20.34Z"/>
          <path class="cls-10" d="m3036.21,3353.21c13.23,14.2,20.19,31.04,24.34,51.64,5.19,25.86,9.82,55.32,16.05,98.95.01-33.43.6-40.62-1.59-73.28-3.05-45.47-10.33-74.79-26.96-96.21-4.31,5.68-8.25,12.05-11.85,18.89Z"/>
          <path class="cls-10" d="m3004.7,3473.08l.4.35c8.66,7.6,33.75,25.06,34.42,24.02.72-1.11-2.08-4.42-.13-25.05.18-1.89-2.67-4.34-6.47-7.66-31.04-26.97-3.35-113.49,26.78-68.12,4.65,7.01,11.44,15.22,11.68,15.34l-4.53-36.53-29.83-23.67c-23.25,43.21-32.3,105.68-32.3,120.42v.91Z"/>
          <path class="cls-10" d="m4931.85,3105.52c34.8-.83,68.02,8.75,106.02,25.46,32.63,14.36,47.05,32.49,53.42,50.09,3.11,8.62,4.3,17.09,4.76,24.93,13.11-2.48,23.22-5.53,27.17-9.21,5.25-4.89,10.27-10.73,6.33-21.83-2.33-6.58-7.81-15.01-18.26-26.2-27.5-29.44-88.13-61.51-154.66-53.99-8.41.79-17.02,4.11-24.78,10.75Z"/>
          <path class="cls-10" d="m4042.21,3084.52c-103.85-25.12-46.46-97.64,171.39-204.65-9.71-.29-132.88-2.66-143.78,1.35-100.42,37-192.29,93.47-297.48,175.05-16.27,14.97-32.92,28.26-47.98,38.17-5.18,4.2-10.39,8.47-15.64,12.79l810.92,71.88c-145.71-21.01-373.59-69.46-477.42-94.6Z"/>
          <path class="cls-3" d="m3661.03,3086.13c330.28,18.58,706.63,50.03,1033.57,100.16,27.81,4.27,51.81,7.24,78.28,15.85l-14.52-1.07c-369.62-32.95-726.55-68.47-1098.78-84.22-8.53-.41-15.13-7.6-14.73-16.08.41-8.47,7.64-15.03,16.18-14.63Z"/>
          <path class="cls-10" d="m4680.31,3238.42c-66.24,25.16-723.85,240.99-821.27,240.99-52.75,0-522.12-58.71-722.62-90.77-30.14-4.82-39.25-20.86-38.34-29.2-11.74,22.99-8.26,42.51,34.73,48.65,69.94,9.97,171.21,24.61,277.6,39.68,25.61,3.64,51.53,7.29,77.37,10.91,62.89,8.82,125.4,17.44,182.25,24.99,99.99,13.31,165.2,29.3,226.79,22.77,53.11-5.61,210.96-51.45,378.49-104.4,193.01-61,398.12-131.05,470.45-159.81,44.37-17.64,27.82-31.1-11.37-41.35,2.61,9.23-13.47,22.1-54.09,37.54Z"/>
          <path class="cls-10" d="m2875.04,3784.87c-26.74,54.01,13.8,89,70.3,112.21,112.54,46.24,285.85,78.07,464.33,110.39,211.82,38.36,432.13,75,583.78,103.38l-34.74-2.57c-284.81-29.74-675.04-86.13-955.48-157.98-109.7-28.09-211.03-78.64-160.93-184.57l32.75,19.14Z"/>
          <polygon class="cls-10" points="4749.54 3994.81 5402.71 3785.64 4735.54 4039.22 4749.54 3994.81"/>
          <path class="cls-10" d="m4717.21,3502.52c146.49-41.88,663.86-151.37,789.38-146-280.08,64.28-528.55,127.42-756.51,202.8l-32.87-56.8Z"/>
        </g>
      </g>
      <g>
        <g>
          <text class="cls-23" transform="translate(1014.18 5808.46)"><tspan x="0" y="0">Bright Safaris Africa Ltd </tspan></text>
          <text class="cls-22" transform="translate(1014.18 5808.46)"><tspan x="0" y="0">Bright Safaris Africa Ltd </tspan></text>
        </g>
        <text class="cls-24" transform="translate(1960.77 6136.92)"><tspan class="cls-25" x="0" y="0">“</tspan><tspan class="cls-16" x="111.32" y="0">Wher</tspan><tspan class="cls-2" x="601.9" y="0">e</tspan><tspan class="cls-16" x="716.74" y="0">ver </tspan><tspan class="cls-21" x="1057.02" y="0">Y</tspan><tspan class="cls-16" x="1159.74" y="0">ou </tspan><tspan class="cls-18" x="1447.49" y="0">W</tspan><tspan class="cls-19" x="1618.04" y="0">ande</tspan><tspan class="cls-1" x="2092.88" y="0">r</tspan><tspan class="cls-19" x="2165.35" y="0">, </tspan><tspan class="cls-17" x="2285.95" y="0">W</tspan><tspan class="cls-16" x="2457.86" y="0">e&apos;ve Got </tspan><tspan class="cls-20" x="3313.52" y="0">Y</tspan><tspan class="cls-19" x="3416.24" y="0">our Ride!”</tspan></text>
      </g>
    </g>
  </g>
</svg>